<?xml version="1.0" encoding="UTF-8"?>
<svg width="752pt" height="752pt" version="1.1" viewBox="0 0 752 752" xmlns="http://www.w3.org/2000/svg">
 <defs>
  <clipPath id="a">
   <path d="m139.21 166h473.58v420h-473.58z"/>
  </clipPath>
 </defs>
 <g clip-path="url(#a)">
  <path d="m374.26 166.25c-2.3086 0.28516-4.5039 1.1484-6.3945 2.5l-222.78 158.83c-3.0234 2.1406-5.0664 5.3945-5.6836 9.043s0.24219 7.3945 2.3906 10.406c2.1406 3.0117 5.3867 5.0508 9.0312 5.668 3.6406 0.61719 7.3789-0.23828 10.391-2.375l19.531-13.926v235.56c0.015625 7.668 6.2305 13.883 13.898 13.898h362.71-0.003907c3.6992 0.015625 7.2539-1.4414 9.875-4.0508 2.6211-2.6055 4.1016-6.1484 4.1094-9.8477v-235.48l19.422 13.844v0.003907c3.0117 2.1484 6.7578 3.0078 10.406 2.3906 3.6484-0.61719 6.9023-2.6641 9.043-5.6836 2.1484-3.0117 3.0078-6.7578 2.3906-10.406-0.61719-3.6484-2.6641-6.9023-5.6836-9.043l-222.8-158.83c-2.8516-2.0469-6.3672-2.9375-9.8477-2.5039zm1.7422 30.984 167.48 119.39v241.36h-86.582v-152.66l-0.003906-0.003906c-0.007813-3.6953-1.4844-7.2422-4.1094-9.8477-2.6211-2.6094-6.1719-4.0664-9.8711-4.0508h-133.86c-7.6602 0.03125-13.855 6.2383-13.871 13.898v152.66h-86.664v-241.36zm-53.047 222.07h106.09v138.67h-106.09z" fill-rule="evenodd"/>
 </g>
</svg>
