<svg xml:space="preserve" viewBox="120.91239669421486 0 334.1752066115703 327.7535934291581" y="0px" x="0px" xmlns:xlink="http://www.w3.org/1999/xlink" xmlns="http://www.w3.org/2000/svg" id="oam-logo-v-pos" version="1.1" style="max-height: 500px" width="334.1752066115703" height="327.7535934291581">
<g>
	<path d="M52.5,417.5c0,9.2-2.3,16.2-6.8,21.2c-4.5,4.9-11,7.4-19.5,7.4s-14.9-2.5-19.5-7.4   c-4.5-4.9-6.8-12-6.8-21.2c0-9.2,2.3-16.3,6.8-21.2c4.5-4.9,11.1-7.3,19.5-7.3s15,2.5,19.5,7.4C50.3,401.3,52.5,408.3,52.5,417.5z    M12.3,417.5c0,6.2,1.2,10.9,3.5,14c2.3,3.1,5.8,4.7,10.5,4.7c9.3,0,14-6.2,14-18.7c0-12.5-4.6-18.7-13.9-18.7   c-4.7,0-8.2,1.6-10.5,4.7C13.4,406.7,12.3,411.3,12.3,417.5z" fill="#203C46"/>
	<path d="M84.8,446.1c-5,0-8.8-1.8-11.7-5.4h-0.6c0.4,3.5,0.6,5.6,0.6,6.1V464H61.6v-61.1h9.4l1.6,5.5h0.5   c2.7-4.2,6.7-6.3,12-6.3c5,0,8.9,1.9,11.7,5.8c2.8,3.9,4.2,9.2,4.2,16.1c0,4.5-0.7,8.5-2,11.8c-1.3,3.3-3.2,5.9-5.6,7.6   C90.9,445.2,88.1,446.1,84.8,446.1z M81.4,411.4c-2.8,0-4.9,0.9-6.2,2.6c-1.3,1.8-2,4.7-2,8.7v1.3c0,4.6,0.7,7.8,2,9.8   c1.3,2,3.5,3,6.4,3c5.2,0,7.7-4.3,7.7-12.8c0-4.2-0.6-7.3-1.9-9.4C86.1,412.4,84.1,411.4,81.4,411.4z" fill="#203C46"/>
	<path d="M128.5,446.1c-6.8,0-12.1-1.9-15.9-5.7c-3.8-3.8-5.7-9.1-5.7-16c0-7.1,1.8-12.6,5.3-16.5   c3.5-3.9,8.4-5.8,14.7-5.8c6,0,10.6,1.7,13.9,5.1c3.3,3.4,5,8.1,5,14.2v5.6h-27.2c0.1,3.3,1.1,5.9,2.9,7.7   c1.8,1.8,4.4,2.8,7.6,2.8c2.5,0,4.9-0.3,7.2-0.8c2.3-0.5,4.6-1.4,7.1-2.5v9c-2,1-4.2,1.8-6.5,2.3   C134.6,445.8,131.8,446.1,128.5,446.1z M126.9,410.4c-2.4,0-4.4,0.8-5.7,2.3c-1.4,1.6-2.2,3.8-2.4,6.6h16.2   c-0.1-2.9-0.8-5.1-2.2-6.6C131.2,411.1,129.3,410.4,126.9,410.4z" fill="#203C46"/>
	<path d="M192.7,445.3h-11.5v-24.8c0-3.1-0.5-5.4-1.6-6.9c-1.1-1.5-2.8-2.3-5.2-2.3c-3.2,0-5.5,1.1-7,3.2   s-2.2,5.7-2.2,10.8v20h-11.5v-42.4h8.8l1.5,5.4h0.6c1.3-2,3.1-3.6,5.3-4.6c2.3-1,4.8-1.6,7.7-1.6c4.9,0,8.6,1.3,11.2,4   c2.5,2.7,3.8,6.5,3.8,11.6V445.3z" fill="#203C46"/>
	<path d="M238.8,445.3l-4-13.2h-20.1l-4,13.2h-12.6l19.5-55.7h14.3l19.6,55.7H238.8z M232,422.3   c-3.7-12-5.8-18.7-6.2-20.3c-0.5-1.6-0.8-2.8-1-3.7c-0.8,3.2-3.2,11.2-7.1,24H232z" fill="#203C46"/>
	<path d="M274.8,446.1c-6.8,0-12.1-1.9-15.9-5.7c-3.8-3.8-5.7-9.1-5.7-16c0-7.1,1.8-12.6,5.3-16.5   c3.5-3.9,8.4-5.8,14.7-5.8c6,0,10.6,1.7,13.9,5.1s5,8.1,5,14.2v5.6h-27.2c0.1,3.3,1.1,5.9,2.9,7.7c1.8,1.8,4.4,2.8,7.6,2.8   c2.5,0,4.9-0.3,7.2-0.8c2.3-0.5,4.6-1.4,7.1-2.5v9c-2,1-4.2,1.8-6.5,2.3C280.9,445.8,278.1,446.1,274.8,446.1z M273.1,410.4   c-2.4,0-4.4,0.8-5.7,2.3c-1.4,1.6-2.2,3.8-2.4,6.6h16.2c0-2.9-0.8-5.1-2.2-6.6C277.5,411.1,275.6,410.4,273.1,410.4z" fill="#203C46"/>
	<path d="M323.6,402.1c1.6,0,2.9,0.1,3.9,0.3l-0.9,10.9c-0.9-0.3-2.1-0.4-3.4-0.4c-3.7,0-6.5,0.9-8.6,2.8   c-2.1,1.9-3.1,4.6-3.1,8v21.6H300v-42.4h8.7l1.7,7.1h0.6c1.3-2.4,3.1-4.3,5.3-5.7C318.5,402.8,320.9,402.1,323.6,402.1z" fill="#203C46"/>
	<path d="M332.7,392c0-3.8,2.1-5.7,6.3-5.7c4.2,0,6.3,1.9,6.3,5.7c0,1.8-0.5,3.2-1.6,4.2c-1,1-2.6,1.5-4.7,1.5   C334.8,397.6,332.7,395.7,332.7,392z M344.7,445.3h-11.5v-42.4h11.5V445.3z" fill="#203C46"/>
	<path d="M381.5,445.3l-2.2-5.8H379c-1.9,2.5-3.9,4.2-6,5.1c-2.1,0.9-4.7,1.4-8,1.4c-4.1,0-7.2-1.2-9.6-3.5   c-2.3-2.3-3.5-5.6-3.5-9.9c0-4.5,1.6-7.8,4.7-10c3.1-2.1,7.9-3.3,14.2-3.5l7.3-0.2v-1.9c0-4.3-2.2-6.4-6.6-6.4   c-3.4,0-7.3,1-11.9,3.1l-3.8-7.8c4.9-2.6,10.2-3.8,16.2-3.8c5.7,0,10,1.2,13,3.7c3,2.5,4.5,6.2,4.5,11.3v28.3H381.5z M378.1,425.7   l-4.5,0.2c-3.3,0.1-5.8,0.7-7.5,1.8c-1.6,1.1-2.5,2.8-2.5,5.1c0,3.3,1.9,4.9,5.6,4.9c2.7,0,4.8-0.8,6.4-2.3   c1.6-1.5,2.4-3.6,2.4-6.1V425.7z" fill="#203C46"/>
	<path d="M410.9,445.3h-11.5v-59h11.5V445.3z" fill="#203C46"/>
	<path d="M445.3,445.3L432,401.8h-0.3c0.5,8.9,0.7,14.8,0.7,17.7v25.8h-10.5v-55.5h15.9l13.1,42.4h0.2l13.9-42.4   h15.9v55.5H470v-26.3c0-1.2,0-2.7,0.1-4.3c0-1.6,0.2-5.9,0.5-12.9h-0.3L456,445.3H445.3z" fill="#203C46"/>
	<path d="M518.7,445.3l-2.2-5.8h-0.3c-1.9,2.5-3.9,4.2-6,5.1c-2.1,0.9-4.7,1.4-8,1.4c-4.1,0-7.2-1.2-9.6-3.5   c-2.3-2.3-3.5-5.6-3.5-9.9c0-4.5,1.6-7.8,4.7-10c3.1-2.1,7.9-3.3,14.2-3.5l7.3-0.2v-1.9c0-4.3-2.2-6.4-6.6-6.4   c-3.4,0-7.3,1-11.9,3.1l-3.8-7.8c4.9-2.6,10.2-3.8,16.2-3.8c5.7,0,10,1.2,13,3.7c3,2.5,4.5,6.2,4.5,11.3v28.3H518.7z M515.3,425.7   l-4.5,0.2c-3.3,0.1-5.8,0.7-7.5,1.8c-1.6,1.1-2.5,2.8-2.5,5.1c0,3.3,1.9,4.9,5.6,4.9c2.7,0,4.8-0.8,6.4-2.3   c1.6-1.5,2.4-3.6,2.4-6.1V425.7z" fill="#203C46"/>
	<path d="M559.8,446.1c-5,0-8.8-1.8-11.7-5.4h-0.6c0.4,3.5,0.6,5.6,0.6,6.1V464h-11.5v-61.1h9.4l1.6,5.5h0.5   c2.7-4.2,6.7-6.3,12-6.3c5,0,8.9,1.9,11.7,5.8c2.8,3.9,4.2,9.2,4.2,16.1c0,4.5-0.7,8.5-2,11.8s-3.2,5.9-5.6,7.6   C565.9,445.2,563.1,446.1,559.8,446.1z M556.4,411.4c-2.8,0-4.9,0.9-6.2,2.6c-1.3,1.8-2,4.7-2,8.7v1.3c0,4.6,0.7,7.8,2,9.8   c1.3,2,3.5,3,6.4,3c5.2,0,7.7-4.3,7.7-12.8c0-4.2-0.6-7.3-1.9-9.4C561.1,412.4,559.1,411.4,556.4,411.4z" fill="#203C46"/>
</g>
<g>
	<polygon points="128,224 288,0 448,224 416,320 352,304 288,256 224,304 160,320" fill="#FFFFFF"/>
	<polygon points="208,256 208,308 224,304 234.1,256" fill="#E4E8E9"/>
	<polygon points="240.8,224 240.8,224 288,0 208,112 208,224" fill="#E4E8E9"/>
	<polygon points="448,224 368,112 368,224" fill="#68C39F"/>
	<polygon points="335.2,224 336,224 336,67.2 288,0 335.2,224" fill="#E4E8E9"/>
	<polygon points="128,224 160,320 176,316 176,156.8" fill="#449BB5"/>
	<polygon points="352,304 416,320 437.3,256 341.9,256" fill="#E4E8E9"/>
	<polygon points="234.1,256 234.1,256 224,304 288,256 288,224" fill="#B8C1C4"/>
	<polygon points="288,192 288,0 240.8,224" fill="#B8C1C4"/>
	<polygon points="335.2,224 288,0 288,192" fill="#D2D8DA"/>
	<polygon points="341.9,256 288,224 288,256 352,304 341.9,256" fill="#D2D8DA"/>
	<polygon points="240.8,224 234.1,256 288,224 288,192" fill="#DBE0E1"/>
	<polygon points="234.1,256 240.8,224 208,224 208,112 176,156.8 176,316 208,308 208,256" fill="#FFFFFF"/>
	<polygon points="234.1,256 234.1,256 240,228" fill="#FFFFFF"/>
	<polygon points="448,224 368,224 368,112 336,67.2 336,224 335.2,224 341.9,256 437.3,256 448,224" fill="#FFFFFF"/>
	<polygon points="341.9,256 336,228 341.9,256" fill="#FFFFFF"/>
	<polygon points="288,192 288,224 341.9,256 335.2,224" fill="#EDEFF0"/>
</g>
</svg>