<svg width="10" height="16" viewBox="0 0 10 16" fill="none" xmlns="http://www.w3.org/2000/svg">
<path d="M4.19375 12.3312L7.625 8H4.83125L5.31875 3.85625L2.075 8.9H4.8125L4.19375 12.3312ZM3.2 10.25H0.8375C0.575 10.25 0.38125 10.1375 0.25625 9.9125C0.13125 9.675 0.1375 9.44375 0.275 9.21875L5.35625 1.2875C5.45625 1.1125 5.6 0.999999 5.7875 0.949999C5.975 0.887499 6.1625 0.887499 6.35 0.949999C6.5375 1.0125 6.68125 1.13125 6.78125 1.30625C6.89375 1.46875 6.9375 1.65 6.9125 1.85L6.35 6.65H9.0125C9.3 6.65 9.5 6.775 9.6125 7.025C9.7375 7.275 9.7125 7.5125 9.5375 7.7375L3.9875 14.7687C3.8625 14.9187 3.70625 15.0187 3.51875 15.0687C3.34375 15.1187 3.16875 15.1 2.99375 15.0125C2.81875 14.925 2.68125 14.8 2.58125 14.6375C2.49375 14.4625 2.46875 14.2812 2.50625 14.0937L3.2 10.25Z" fill="#181515"/>
</svg>
