<svg width="16" height="14" viewBox="0 0 16 14" fill="none" xmlns="http://www.w3.org/2000/svg">
<path d="M1.65 10.05C1.65 10.05 1.65 10.025 1.65 9.975C1.65 9.9125 1.65 9.9375 1.65 10.05V3.75V10.05ZM1.65 11.4C1.2875 11.4 0.96875 11.2687 0.69375 11.0062C0.43125 10.7437 0.3 10.425 0.3 10.05V1.95C0.3 1.575 0.43125 1.25625 0.69375 0.993749C0.95625 0.731249 1.275 0.599999 1.65 0.599999H5.1375C5.3125 0.599999 5.48125 0.631249 5.64375 0.693749C5.80625 0.756249 5.95625 0.856249 6.09375 0.993749L7.5 2.4H13.35C13.725 2.4 14.0438 2.53125 14.3063 2.79375C14.5688 3.05625 14.7 3.375 14.7 3.75V5.19375C14.4875 5.08125 14.2688 4.99375 14.0438 4.93125C13.8313 4.85625 13.6 4.79375 13.35 4.74375V3.75H1.65V10.05H7.51875C7.54375 10.2875 7.575 10.5187 7.6125 10.7437C7.6625 10.9687 7.7375 11.1875 7.8375 11.4H1.65ZM12.45 10.95C12.825 10.95 13.1438 10.8187 13.4063 10.5562C13.6688 10.2937 13.8 9.975 13.8 9.6C13.8 9.225 13.6688 8.90625 13.4063 8.64375C13.1438 8.38125 12.825 8.25 12.45 8.25C12.075 8.25 11.7563 8.38125 11.4938 8.64375C11.2313 8.90625 11.1 9.225 11.1 9.6C11.1 9.975 11.2313 10.2937 11.4938 10.5562C11.7563 10.8187 12.075 10.95 12.45 10.95ZM12.3 13.2C12.1625 13.2 12.0375 13.1562 11.925 13.0687C11.825 12.9812 11.7625 12.8687 11.7375 12.7312L11.6063 12.15C11.4313 12.0875 11.2625 12.0187 11.1 11.9437C10.95 11.8562 10.8063 11.75 10.6688 11.625L10.0688 11.8125C9.93125 11.85 9.8 11.8437 9.675 11.7937C9.5625 11.7437 9.475 11.6625 9.4125 11.55L9.2625 11.3062C9.2 11.1937 9.175 11.075 9.1875 10.95C9.2 10.8125 9.25625 10.6937 9.35625 10.5937L9.80625 10.1625C9.76875 9.9875 9.75 9.80625 9.75 9.61875C9.75 9.43125 9.76875 9.25 9.80625 9.075L9.375 8.6625C9.275 8.5625 9.2125 8.45 9.1875 8.325C9.175 8.2 9.2 8.075 9.2625 7.95L9.4125 7.70625C9.475 7.58125 9.56875 7.49375 9.69375 7.44375C9.81875 7.39375 9.95 7.3875 10.0875 7.425L10.65 7.59375C10.7875 7.45625 10.9375 7.34375 11.1 7.25625C11.2625 7.16875 11.4313 7.1 11.6063 7.05L11.7375 6.45C11.7625 6.3125 11.8313 6.20625 11.9438 6.13125C12.0563 6.04375 12.1813 6 12.3188 6H12.5813C12.7188 6 12.8438 6.04375 12.9563 6.13125C13.0688 6.20625 13.1375 6.3125 13.1625 6.45L13.2938 7.05C13.4688 7.1125 13.6375 7.1875 13.8 7.275C13.975 7.35 14.125 7.45625 14.25 7.59375L14.8313 7.425C14.9688 7.3875 15.0938 7.4 15.2063 7.4625C15.3313 7.5125 15.425 7.59375 15.4875 7.70625L15.6375 7.95C15.7 8.0625 15.7188 8.1875 15.6938 8.325C15.6813 8.45 15.625 8.5625 15.525 8.6625L15.1125 9.05625C15.15 9.23125 15.1625 9.41875 15.15 9.61875C15.15 9.80625 15.1313 9.9875 15.0938 10.1625L15.525 10.575C15.625 10.675 15.6813 10.7937 15.6938 10.9312C15.7188 11.0562 15.7 11.175 15.6375 11.2875L15.4875 11.5312C15.425 11.6437 15.3313 11.725 15.2063 11.775C15.0938 11.825 14.9688 11.8312 14.8313 11.7937L14.2313 11.625C14.0938 11.75 13.9438 11.8562 13.7813 11.9437C13.6313 12.0187 13.4688 12.0875 13.2938 12.15L13.1438 12.75C13.1188 12.8875 13.05 13 12.9375 13.0875C12.8375 13.1625 12.7188 13.2 12.5813 13.2H12.3Z" fill="#484848"/>
</svg>
