<svg width="56" height="56" viewBox="0 0 56 56" fill="none" xmlns="http://www.w3.org/2000/svg">
<g filter="url(#filter0_d_481_3467)">
<circle cx="28" cy="24" r="24" fill="white"/>
</g>
<path d="M26.9617 36V34.0569C24.5257 33.7943 22.471 32.8315 20.7974 31.1685C19.1238 29.5055 18.1643 27.4661 17.9189 25.0503H16V22.9759H17.9189C18.1993 20.5427 19.172 18.4902 20.8368 16.8184C22.5016 15.1466 24.5433 14.1794 26.9617 13.9168V12H29.0383V13.9168C31.4392 14.1794 33.4721 15.1466 35.1369 16.8184C36.8018 18.4902 37.7831 20.5427 38.0811 22.9759H40V25.0503H38.0811C37.8182 27.4661 36.8499 29.5055 35.1763 31.1685C33.5027 32.8315 31.4567 33.7943 29.0383 34.0569V36H26.9617ZM27.9869 31.7199C30.1073 31.7199 31.9299 30.9716 33.4545 29.4748C34.9792 27.9781 35.7415 26.1532 35.7415 24C35.7415 21.8643 34.9792 20.0394 33.4545 18.5252C31.9299 17.0109 30.1073 16.2538 27.9869 16.2538C25.8664 16.2538 24.0438 17.0109 22.5192 18.5252C20.9945 20.0394 20.2322 21.8643 20.2322 24C20.2322 26.1357 20.9945 27.9562 22.5192 29.4617C24.0438 30.9672 25.8664 31.7199 27.9869 31.7199ZM28.0131 27.86C26.9091 27.86 25.989 27.4923 25.253 26.7571C24.517 26.0219 24.149 25.1028 24.149 24C24.149 22.9147 24.517 22 25.253 21.256C25.989 20.512 26.9003 20.14 27.9869 20.14C29.0734 20.14 29.989 20.512 30.7338 21.256C31.4786 22 31.851 22.9147 31.851 24C31.851 25.1028 31.4786 26.0219 30.7338 26.7571C29.989 27.4923 29.0821 27.86 28.0131 27.86ZM27.9869 25.7593C28.4775 25.7593 28.8938 25.593 29.2355 25.2604C29.5772 24.9278 29.7481 24.5164 29.7481 24.0263C29.7481 23.5186 29.5816 23.0941 29.2486 22.7527C28.9157 22.4114 28.4951 22.2407 27.9869 22.2407C27.4962 22.2407 27.0843 22.4114 26.7514 22.7527C26.4184 23.0941 26.2519 23.5098 26.2519 24C26.2519 24.5077 26.414 24.9278 26.7382 25.2604C27.0624 25.593 27.4786 25.7593 27.9869 25.7593Z" fill="#006404"/>
<defs>
<filter id="filter0_d_481_3467" x="0" y="0" width="56" height="56" filterUnits="userSpaceOnUse" color-interpolation-filters="sRGB">
<feFlood flood-opacity="0" result="BackgroundImageFix"/>
<feColorMatrix in="SourceAlpha" type="matrix" values="0 0 0 0 0 0 0 0 0 0 0 0 0 0 0 0 0 0 127 0" result="hardAlpha"/>
<feOffset dy="4"/>
<feGaussianBlur stdDeviation="2"/>
<feComposite in2="hardAlpha" operator="out"/>
<feColorMatrix type="matrix" values="0 0 0 0 0 0 0 0 0 0 0 0 0 0 0 0 0 0 0.15 0"/>
<feBlend mode="normal" in2="BackgroundImageFix" result="effect1_dropShadow_481_3467"/>
<feBlend mode="normal" in="SourceGraphic" in2="effect1_dropShadow_481_3467" result="shape"/>
</filter>
</defs>
</svg>
