<svg width="111" height="32" viewBox="0 0 111 32" fill="none" xmlns="http://www.w3.org/2000/svg">
<g clip-path="url(#clip0_494_1933)">
<path fill-rule="evenodd" clip-rule="evenodd" d="M29.1797 12.9895C29.0397 12.7428 28.8597 12.5361 28.633 12.3761C28.4064 12.2161 28.1597 12.0895 27.8797 12.0095C27.5997 11.9295 27.3197 11.8828 27.033 11.8828C26.7464 11.8828 26.4664 11.9228 26.1864 12.0095C25.9064 12.0895 25.653 12.2161 25.4264 12.3761C25.1997 12.5361 25.0197 12.7428 24.8864 12.9895C24.7464 13.2361 24.6797 13.5228 24.6797 13.8495V18.0961C24.6797 18.4228 24.7464 18.7161 24.8864 18.9628C25.0197 19.2095 25.2064 19.4095 25.4264 19.5761C25.653 19.7361 25.8997 19.8628 26.1864 19.9428C26.4664 20.0228 26.7464 20.0628 27.033 20.0628C27.313 20.0628 27.5997 20.0228 27.8797 19.9428C28.1597 19.8628 28.413 19.7361 28.633 19.5761C28.8597 19.4161 29.0397 19.2095 29.1797 18.9628C29.3197 18.7161 29.3864 18.4295 29.3864 18.0961V13.8495C29.3864 13.5228 29.3197 13.2361 29.1797 12.9895ZM28.0064 18.0961C28.0064 18.3761 27.8997 18.5761 27.713 18.7095C27.5264 18.8428 27.2997 18.9095 27.0464 18.9095C26.793 18.9095 26.5664 18.8428 26.3797 18.7095C26.193 18.5761 26.0397 18.3695 26.0397 18.0961V13.8495C26.0397 13.5695 26.193 13.3628 26.3797 13.2361C26.5664 13.1028 26.793 13.0161 27.0464 13.0161C27.2997 13.0161 27.5264 13.1028 27.713 13.2361C27.8997 13.3695 28.0064 13.5761 28.0064 13.8495V18.0961Z" fill="#D73F3F"/>
<mask id="mask0_494_1933" style="mask-type:alpha" maskUnits="userSpaceOnUse" x="0" y="0" width="132" height="32">
<path fill-rule="evenodd" clip-rule="evenodd" d="M0 32H131.353V0H0V32Z" fill="white"/>
</mask>
<g mask="url(#mask0_494_1933)">
<path fill-rule="evenodd" clip-rule="evenodd" d="M22.2564 11.875V15.3283H20.103V11.875H18.9297V20.0683H20.103V16.615H22.2564V20.0683H23.523V11.875H22.2564Z" fill="#D73F3F"/>
</g>
<mask id="mask1_494_1933" style="mask-type:alpha" maskUnits="userSpaceOnUse" x="0" y="0" width="132" height="32">
<path fill-rule="evenodd" clip-rule="evenodd" d="M0 32H131.353V0H0V32Z" fill="white"/>
</mask>
<g mask="url(#mask1_494_1933)">
<path fill-rule="evenodd" clip-rule="evenodd" d="M34.9557 11.875H30.2891V13.0817H32.0091L31.9891 20.0683H33.2357V13.0817H34.9557V11.875Z" fill="#D73F3F"/>
</g>
<mask id="mask2_494_1933" style="mask-type:alpha" maskUnits="userSpaceOnUse" x="0" y="0" width="132" height="32">
<path fill-rule="evenodd" clip-rule="evenodd" d="M0 32H131.353V0H0V32Z" fill="white"/>
</mask>
<g mask="url(#mask2_494_1933)">
<path fill-rule="evenodd" clip-rule="evenodd" d="M43.6133 19.18H53.12L47.44 12.78L41.78 6.38L36.12 0H7.69333L13.3533 6.38H3.82667L9.48667 12.78L9.53333 12.82H0L5.68 19.22L11.34 25.62L17 32H45.4267L39.7667 25.62L39.7267 25.56H49.2533L43.6133 19.18ZM26.56 26.6333C20.2133 26.6333 15.0667 21.8733 15.0667 16C15.0667 10.1267 20.2133 5.36667 26.56 5.36667C32.9067 5.36667 38.0533 10.1267 38.0533 16C38.0533 21.8733 32.9067 26.6333 26.56 26.6333Z" fill="#D73F3F"/>
</g>
</g>
<path d="M69.9 12.6C69.9 12.6667 69.8733 12.7267 69.82 12.78C69.78 12.82 69.7267 12.84 69.66 12.84H63.4C63.3333 12.84 63.3 12.8733 63.3 12.94V15.4C63.3 15.4667 63.3333 15.5 63.4 15.5H67.42C67.4867 15.5 67.54 15.5267 67.58 15.58C67.6333 15.62 67.66 15.6733 67.66 15.74V18.08C67.66 18.1467 67.6333 18.2067 67.58 18.26C67.54 18.3 67.4867 18.32 67.42 18.32H63.4C63.3333 18.32 63.3 18.3533 63.3 18.42V23.76C63.3 23.8267 63.2733 23.8867 63.22 23.94C63.18 23.98 63.1267 24 63.06 24H60.22C60.1533 24 60.0933 23.98 60.04 23.94C60 23.8867 59.98 23.8267 59.98 23.76V10.24C59.98 10.1733 60 10.12 60.04 10.08C60.0933 10.0267 60.1533 10 60.22 10H69.66C69.7267 10 69.78 10.0267 69.82 10.08C69.8733 10.12 69.9 10.1733 69.9 10.24V12.6ZM80.0928 10.16C80.1461 10.0533 80.2395 10 80.3728 10H83.1928C83.2595 10 83.3128 10.0267 83.3528 10.08C83.4061 10.12 83.4328 10.1733 83.4328 10.24V23.76C83.4328 23.8267 83.4061 23.8867 83.3528 23.94C83.3128 23.98 83.2595 24 83.1928 24H80.3528C80.2861 24 80.2261 23.98 80.1728 23.94C80.1328 23.8867 80.1128 23.8267 80.1128 23.76V15.72C80.1128 15.6667 80.0995 15.64 80.0728 15.64C80.0461 15.64 80.0195 15.66 79.9928 15.7L78.2728 18.46C78.2195 18.5667 78.1261 18.62 77.9928 18.62H76.5728C76.4395 18.62 76.3461 18.5667 76.2928 18.46L74.5528 15.68C74.5261 15.64 74.4995 15.62 74.4728 15.62C74.4461 15.62 74.4328 15.6467 74.4328 15.7V23.76C74.4328 23.8267 74.4061 23.8867 74.3528 23.94C74.3128 23.98 74.2595 24 74.1928 24H71.3528C71.2861 24 71.2261 23.98 71.1728 23.94C71.1328 23.8867 71.1128 23.8267 71.1128 23.76V10.24C71.1128 10.1733 71.1328 10.12 71.1728 10.08C71.2261 10.0267 71.2861 10 71.3528 10H74.1728C74.2928 10 74.3861 10.0533 74.4528 10.16L77.2328 14.52C77.2728 14.6 77.3128 14.6 77.3528 14.52L80.0928 10.16ZM95.5102 10C95.5768 10 95.6302 10.0267 95.6702 10.08C95.7235 10.12 95.7502 10.1733 95.7502 10.24V12.62C95.7502 12.6867 95.7235 12.7467 95.6702 12.8C95.6302 12.84 95.5768 12.86 95.5102 12.86H92.0102C91.9435 12.86 91.9102 12.8933 91.9102 12.96V23.76C91.9102 23.8267 91.8835 23.8867 91.8302 23.94C91.7902 23.98 91.7368 24 91.6702 24H88.8302C88.7635 24 88.7035 23.98 88.6502 23.94C88.6102 23.8867 88.5902 23.8267 88.5902 23.76V12.96C88.5902 12.8933 88.5568 12.86 88.4902 12.86H85.1102C85.0435 12.86 84.9835 12.84 84.9302 12.8C84.8902 12.7467 84.8702 12.6867 84.8702 12.62V10.24C84.8702 10.1733 84.8902 10.12 84.9302 10.08C84.9835 10.0267 85.0435 10 85.1102 10H95.5102ZM106.167 10.16C106.22 10.0533 106.314 10 106.447 10H109.267C109.334 10 109.387 10.0267 109.427 10.08C109.48 10.12 109.507 10.1733 109.507 10.24V23.76C109.507 23.8267 109.48 23.8867 109.427 23.94C109.387 23.98 109.334 24 109.267 24H106.427C106.36 24 106.3 23.98 106.247 23.94C106.207 23.8867 106.187 23.8267 106.187 23.76V15.72C106.187 15.6667 106.174 15.64 106.147 15.64C106.12 15.64 106.094 15.66 106.067 15.7L104.347 18.46C104.294 18.5667 104.2 18.62 104.067 18.62H102.647C102.514 18.62 102.42 18.5667 102.367 18.46L100.627 15.68C100.6 15.64 100.574 15.62 100.547 15.62C100.52 15.62 100.507 15.6467 100.507 15.7V23.76C100.507 23.8267 100.48 23.8867 100.427 23.94C100.387 23.98 100.334 24 100.267 24H97.427C97.3604 24 97.3004 23.98 97.247 23.94C97.207 23.8867 97.187 23.8267 97.187 23.76V10.24C97.187 10.1733 97.207 10.12 97.247 10.08C97.3004 10.0267 97.3604 10 97.427 10H100.247C100.367 10 100.46 10.0533 100.527 10.16L103.307 14.52C103.347 14.6 103.387 14.6 103.427 14.52L106.167 10.16Z" fill="#D73F3F"/>
<defs>
<clipPath id="clip0_494_1933">
<rect width="53.12" height="32" fill="white"/>
</clipPath>
</defs>
</svg>
