<svg xmlns="http://www.w3.org/2000/svg" width="512" height="512" viewBox="0 0 512 512" version="1.1"><path d="M 83.167 105.952 C 83.350 106.476, 94.525 119.341, 108 134.542 C 121.475 149.742, 132.860 162.814, 133.300 163.590 C 133.983 164.794, 127.834 165, 91.216 165 C 67.631 165, 48.053 165.280, 47.711 165.622 C 47.109 166.225, 51.761 172.269, 59.162 180.500 C 61.140 182.700, 66.730 189, 71.584 194.500 C 83.609 208.126, 84.832 209.504, 91.860 217.349 C 95.235 221.115, 97.745 224.603, 97.439 225.099 C 97.122 225.611, 78.559 226, 54.441 226 C 27.834 226, 12 226.360, 12 226.965 C 12 227.966, 15.174 231.896, 22.961 240.536 C 25.458 243.307, 28.855 247.132, 30.510 249.036 C 33.633 252.629, 46.443 267.256, 51.059 272.500 C 52.512 274.150, 57.480 279.742, 62.100 284.927 C 66.720 290.112, 72.278 296.412, 74.452 298.927 C 76.625 301.442, 80.450 305.766, 82.952 308.536 C 87.987 314.112, 88.704 314.928, 104.895 333.500 C 117.775 348.274, 127.009 358.771, 128.552 360.394 C 131 362.967, 144.806 378.663, 148.347 382.899 C 150.462 385.429, 155.637 391.264, 159.847 395.864 C 164.056 400.464, 167.860 404.852, 168.300 405.614 C 169.429 407.572, 434.006 407.707, 433.990 405.750 C 433.984 405.063, 431.847 402.207, 429.240 399.404 C 421.688 391.285, 411.103 379.380, 395.128 361.039 C 392.032 357.486, 388.037 352.931, 386.250 350.918 C 384.462 348.905, 383 346.975, 383 346.629 C 383 346.283, 402.575 346, 426.500 346 C 464.500 346, 470 345.810, 470 344.500 C 470 343.675, 469.663 342.999, 469.250 342.997 C 468.837 342.996, 463.775 337.535, 458 330.862 C 452.225 324.189, 446.375 317.526, 445 316.056 C 443.625 314.586, 440.025 310.524, 437 307.029 C 433.975 303.535, 428.912 297.778, 425.750 294.237 C 422.587 290.696, 420 287.394, 420 286.899 C 420 286.381, 438.215 286, 463 286 C 486.650 286, 506 285.691, 506 285.314 C 506 284.415, 499.701 276.889, 488.528 264.439 C 483.563 258.906, 476.758 251.256, 473.407 247.439 C 470.056 243.623, 463.643 236.384, 459.157 231.354 C 454.671 226.324, 451 221.989, 451 221.722 C 451 221.454, 449.313 219.492, 447.250 217.361 C 440.597 210.487, 435 203.896, 435 202.936 C 435 202.421, 434.637 202, 434.194 202 C 433.751 202, 429.813 197.850, 425.444 192.777 C 421.075 187.704, 416.825 182.818, 416 181.918 C 415.175 181.019, 411.800 177.222, 408.500 173.480 C 405.200 169.738, 401.825 165.945, 401 165.050 C 400.175 164.156, 394.803 158.041, 389.062 151.462 C 383.320 144.883, 376.570 137.241, 374.062 134.480 C 371.553 131.719, 366.575 126.107, 363 122.008 C 359.425 117.909, 354.526 112.405, 352.113 109.778 L 347.726 105 215.280 105 C 131.861 105, 82.957 105.352, 83.167 105.952 M 233.116 158.576 C 205.604 164.963, 182.761 180.621, 167.416 203.610 C 137.979 247.708, 150.599 306.293, 196.207 337.272 C 200.845 340.423, 205.248 343, 205.991 343 C 206.734 343, 208.053 343.630, 208.921 344.400 C 211.481 346.669, 225.752 351.643, 236.188 353.902 C 250.146 356.925, 267.193 356.791, 282.170 353.542 C 293.562 351.071, 309 345.509, 309 343.877 C 309 343.395, 309.808 343, 310.796 343 C 313.965 343, 327.895 333.037, 336.461 324.643 C 351.578 309.831, 360.326 293.199, 364.678 271 C 366.483 261.795, 365.920 241.656, 363.672 235 C 362.836 232.525, 361.633 228.523, 360.999 226.107 C 358.846 217.906, 352.052 205.361, 344.963 196.500 C 329.428 177.081, 307.875 163.791, 283.296 158.477 C 267.453 155.052, 248.131 155.090, 233.116 158.576 M 255.733 218.030 C 250.240 219.409, 247.261 221.700, 244.209 226.892 C 241.538 231.435, 241.495 231.789, 241.170 252 C 240.763 277.239, 241.240 281.509, 245.115 287.360 C 248.690 292.757, 254.554 295.421, 262.967 295.469 C 274.111 295.532, 281.820 289.995, 284.067 280.316 C 285.302 274.993, 285.223 238.137, 283.963 232.263 C 282.790 226.792, 279.113 222.041, 274.088 219.504 C 270.009 217.444, 260.959 216.717, 255.733 218.030 M 186.969 237.200 C 186.887 288.388, 186.973 293.365, 187.950 293.969 C 188.508 294.314, 191.110 294.349, 193.732 294.048 L 198.500 293.500 198.775 277.211 L 199.050 260.923 207.775 261.211 L 216.500 261.500 216.774 277.652 C 216.979 289.725, 217.375 293.930, 218.340 294.300 C 219.050 294.573, 221.739 294.558, 224.316 294.268 L 229 293.740 229 255.820 L 229 217.900 223.250 218.200 L 217.500 218.500 217 234 L 216.500 249.500 207.776 249.789 L 199.051 250.077 198.776 234.289 L 198.500 218.500 192.750 218.200 L 187 217.900 186.969 237.200 M 293.686 218.647 C 293.309 219.025, 293 221.557, 293 224.276 L 293 229.218 300.750 228.859 L 308.500 228.500 308.764 261.187 C 309.006 291.215, 309.168 293.917, 310.764 294.404 C 311.719 294.696, 313.400 294.759, 314.500 294.544 C 315.600 294.329, 317.512 294.119, 318.750 294.077 L 321 294 321 261 L 321 228 329.055 228 L 337.110 228 336.805 223.250 L 336.500 218.500 315.436 218.231 C 303.851 218.083, 294.063 218.270, 293.686 218.647 M 258.988 229.083 C 254.008 230.917, 253.526 232.980, 253.169 254 C 252.720 280.392, 253.890 284, 262.897 284 C 266.713 284, 268.130 283.491, 270.076 281.422 C 272.459 278.887, 272.505 278.489, 272.806 257.941 C 273.152 234.309, 272.472 231.057, 266.770 229.070 C 263.211 227.829, 262.390 227.830, 258.988 229.083" stroke="none" fill="#d4403f" fill-rule="evenodd"/><path d="M 0 256.002 L 0 512.004 256.250 511.752 L 512.500 511.500 512.752 255.750 L 513.004 0 256.502 0 L 0 0 0 256.002 M 0.492 256.500 C 0.492 397.300, 0.608 454.751, 0.750 384.170 C 0.892 313.588, 0.892 198.388, 0.750 128.170 C 0.608 57.951, 0.492 115.700, 0.492 256.500 M 83.167 105.952 C 83.350 106.476, 94.525 119.341, 108 134.542 C 121.475 149.742, 132.860 162.814, 133.300 163.590 C 133.983 164.794, 127.834 165, 91.216 165 C 67.631 165, 48.053 165.280, 47.711 165.622 C 47.109 166.225, 51.761 172.269, 59.162 180.500 C 61.140 182.700, 66.730 189, 71.584 194.500 C 83.609 208.126, 84.832 209.504, 91.860 217.349 C 95.235 221.115, 97.745 224.603, 97.439 225.099 C 97.122 225.611, 78.559 226, 54.441 226 C 27.834 226, 12 226.360, 12 226.965 C 12 227.966, 15.174 231.896, 22.961 240.536 C 25.458 243.307, 28.855 247.132, 30.510 249.036 C 33.633 252.629, 46.443 267.256, 51.059 272.500 C 52.512 274.150, 57.480 279.742, 62.100 284.927 C 66.720 290.112, 72.278 296.412, 74.452 298.927 C 76.625 301.442, 80.450 305.766, 82.952 308.536 C 87.987 314.112, 88.704 314.928, 104.895 333.500 C 117.775 348.274, 127.009 358.771, 128.552 360.394 C 131 362.967, 144.806 378.663, 148.347 382.899 C 150.462 385.429, 155.637 391.264, 159.847 395.864 C 164.056 400.464, 167.860 404.852, 168.300 405.614 C 169.429 407.572, 434.006 407.707, 433.990 405.750 C 433.984 405.063, 431.847 402.207, 429.240 399.404 C 421.688 391.285, 411.103 379.380, 395.128 361.039 C 392.032 357.486, 388.037 352.931, 386.250 350.918 C 384.462 348.905, 383 346.975, 383 346.629 C 383 346.283, 402.575 346, 426.500 346 C 464.500 346, 470 345.810, 470 344.500 C 470 343.675, 469.663 342.999, 469.250 342.997 C 468.837 342.996, 463.775 337.535, 458 330.862 C 452.225 324.189, 446.375 317.526, 445 316.056 C 443.625 314.586, 440.025 310.524, 437 307.029 C 433.975 303.535, 428.912 297.778, 425.750 294.237 C 422.587 290.696, 420 287.394, 420 286.899 C 420 286.381, 438.215 286, 463 286 C 486.650 286, 506 285.691, 506 285.314 C 506 284.415, 499.701 276.889, 488.528 264.439 C 483.563 258.906, 476.758 251.256, 473.407 247.439 C 470.056 243.623, 463.643 236.384, 459.157 231.354 C 454.671 226.324, 451 221.989, 451 221.722 C 451 221.454, 449.313 219.492, 447.250 217.361 C 440.597 210.487, 435 203.896, 435 202.936 C 435 202.421, 434.637 202, 434.194 202 C 433.751 202, 429.813 197.850, 425.444 192.777 C 421.075 187.704, 416.825 182.818, 416 181.918 C 415.175 181.019, 411.800 177.222, 408.500 173.480 C 405.200 169.738, 401.825 165.945, 401 165.050 C 400.175 164.156, 394.803 158.041, 389.062 151.462 C 383.320 144.883, 376.570 137.241, 374.062 134.480 C 371.553 131.719, 366.575 126.107, 363 122.008 C 359.425 117.909, 354.526 112.405, 352.113 109.778 L 347.726 105 215.280 105 C 131.861 105, 82.957 105.352, 83.167 105.952 M 233.116 158.576 C 205.604 164.963, 182.761 180.621, 167.416 203.610 C 137.979 247.708, 150.599 306.293, 196.207 337.272 C 200.845 340.423, 205.248 343, 205.991 343 C 206.734 343, 208.053 343.630, 208.921 344.400 C 211.481 346.669, 225.752 351.643, 236.188 353.902 C 250.146 356.925, 267.193 356.791, 282.170 353.542 C 293.562 351.071, 309 345.509, 309 343.877 C 309 343.395, 309.808 343, 310.796 343 C 313.965 343, 327.895 333.037, 336.461 324.643 C 351.578 309.831, 360.326 293.199, 364.678 271 C 366.483 261.795, 365.920 241.656, 363.672 235 C 362.836 232.525, 361.633 228.523, 360.999 226.107 C 358.846 217.906, 352.052 205.361, 344.963 196.500 C 329.428 177.081, 307.875 163.791, 283.296 158.477 C 267.453 155.052, 248.131 155.090, 233.116 158.576 M 255.733 218.030 C 250.240 219.409, 247.261 221.700, 244.209 226.892 C 241.538 231.435, 241.495 231.789, 241.170 252 C 240.763 277.239, 241.240 281.509, 245.115 287.360 C 248.690 292.757, 254.554 295.421, 262.967 295.469 C 274.111 295.532, 281.820 289.995, 284.067 280.316 C 285.302 274.993, 285.223 238.137, 283.963 232.263 C 282.790 226.792, 279.113 222.041, 274.088 219.504 C 270.009 217.444, 260.959 216.717, 255.733 218.030 M 186.969 237.200 C 186.887 288.388, 186.973 293.365, 187.950 293.969 C 188.508 294.314, 191.110 294.349, 193.732 294.048 L 198.500 293.500 198.775 277.211 L 199.050 260.923 207.775 261.211 L 216.500 261.500 216.774 277.652 C 216.979 289.725, 217.375 293.930, 218.340 294.300 C 219.050 294.573, 221.739 294.558, 224.316 294.268 L 229 293.740 229 255.820 L 229 217.900 223.250 218.200 L 217.500 218.500 217 234 L 216.500 249.500 207.776 249.789 L 199.051 250.077 198.776 234.289 L 198.500 218.500 192.750 218.200 L 187 217.900 186.969 237.200 M 293.686 218.647 C 293.309 219.025, 293 221.557, 293 224.276 L 293 229.218 300.750 228.859 L 308.500 228.500 308.764 261.187 C 309.006 291.215, 309.168 293.917, 310.764 294.404 C 311.719 294.696, 313.400 294.759, 314.500 294.544 C 315.600 294.329, 317.512 294.119, 318.750 294.077 L 321 294 321 261 L 321 228 329.055 228 L 337.110 228 336.805 223.250 L 336.500 218.500 315.436 218.231 C 303.851 218.083, 294.063 218.270, 293.686 218.647 M 258.988 229.083 C 254.008 230.917, 253.526 232.980, 253.169 254 C 252.720 280.392, 253.890 284, 262.897 284 C 266.713 284, 268.130 283.491, 270.076 281.422 C 272.459 278.887, 272.505 278.489, 272.806 257.941 C 273.152 234.309, 272.472 231.057, 266.770 229.070 C 263.211 227.829, 262.390 227.830, 258.988 229.083" stroke="none" fill="#fbfafa" fill-rule="evenodd"/></svg>